# xmcd CD database file
#
# Track frame offsets:
#	150
#	14739
#	29659
#	46324
#	61586
#	75996
#	90281
#	112813
#	127283
#	141837
#	155796
#	170145
#	184408
#	198962
#	213349
#	227949
#	243065
#	258472
#	272835
#
# Disc length: 3846 seconds
#
# Revision: 1
# Processed by: cddbd v1.5.2PL0 Copyright (c) Steve Scherf et al.
# Submitted via: CDex 1.70beta2
#
DISCID=0e0f0413
DTITLE=Jon Katz - A Good Dog [CD2]
DYEAR=2006
DGENRE=Audiobook
TTITLE0=A Good Dog [CD2] - Track 01
TTITLE1=A Good Dog [CD2] - Track 02
TTITLE2=A Good Dog [CD2] - Track 03
TTITLE3=A Good Dog [CD2] - Track 04
TTITLE4=A Good Dog [CD2] - Track 05
TTITLE5=A Good Dog [CD2] - Track 06
TTITLE6=A Good Dog [CD2] - Track 07
TTITLE7=A Good Dog [CD2] - Track 08
TTITLE8=A Good Dog [CD2] - Track 09
TTITLE9=A Good Dog [CD2] - Track 10
TTITLE10=A Good Dog [CD2] - Track 11
TTITLE11=A Good Dog [CD2] - Track 12
TTITLE12=A Good Dog [CD2] - Track 13
TTITLE13=A Good Dog [CD2] - Track 14
TTITLE14=A Good Dog [CD2] - Track 15
TTITLE15=A Good Dog [CD2] - Track 16
TTITLE16=A Good Dog [CD2] - Track 17
TTITLE17=A Good Dog [CD2] - Track 18
TTITLE18=A Good Dog [CD2] - Track 19
EXTD=A Good Dog by Joh Katz 6 CDs\nread by Tom Stechschulte recorded books\n2006 Jungle Country YEAR: 2006
EXTT0=
EXTT1=
EXTT2=
EXTT3=
EXTT4=
EXTT5=
EXTT6=
EXTT7=
EXTT8=
EXTT9=
EXTT10=
EXTT11=
EXTT12=
EXTT13=
EXTT14=
EXTT15=
EXTT16=
EXTT17=
EXTT18=
PLAYORDER=
